<?xml version="1.0" encoding="UTF-8" standalone="no"?>
<!-- Created with Inkscape (http://www.inkscape.org/) -->

<svg
   xmlns:dc="http://purl.org/dc/elements/1.1/"
   xmlns:cc="http://creativecommons.org/ns#"
   xmlns:rdf="http://www.w3.org/1999/02/22-rdf-syntax-ns#"
   xmlns:svg="http://www.w3.org/2000/svg"
   xmlns="http://www.w3.org/2000/svg"
   xmlns:sodipodi="http://sodipodi.sourceforge.net/DTD/sodipodi-0.dtd"
   xmlns:inkscape="http://www.inkscape.org/namespaces/inkscape"
   width="99.26825mm"
   height="104.21431mm"
   viewBox="0 0 351.73789 369.2633"
   id="svg2"
   version="1.1"
   inkscape:version="0.91 r13725"
   sodipodi:docname="rotation1.svg">
  <defs
     id="defs4">
    <marker
       inkscape:isstock="true"
       style="overflow:visible"
       id="marker4491"
       refX="0"
       refY="0"
       orient="auto"
       inkscape:stockid="Arrow2Lend">
      <path
         transform="matrix(-1.1,0,0,-1.1,-1.1,0)"
         d="M 8.7185878,4.0337352 -2.2072895,0.01601326 8.7185884,-4.0017078 c -1.7454984,2.3720609 -1.7354408,5.6174519 -6e-7,8.035443 z"
         style="fill:#ffffff;fill-opacity:1;fill-rule:evenodd;stroke:#ffffff;stroke-width:0.625;stroke-linejoin:round;stroke-opacity:1"
         id="path4493"
         inkscape:connector-curvature="0" />
    </marker>
    <marker
       inkscape:stockid="Arrow2Lend"
       orient="auto"
       refY="0"
       refX="0"
       id="Arrow2Lend"
       style="overflow:visible"
       inkscape:isstock="true"
       inkscape:collect="always">
      <path
         id="path4236"
         style="fill:#ffffff;fill-opacity:1;fill-rule:evenodd;stroke:#ffffff;stroke-width:0.625;stroke-linejoin:round;stroke-opacity:1"
         d="M 8.7185878,4.0337352 -2.2072895,0.01601326 8.7185884,-4.0017078 c -1.7454984,2.3720609 -1.7354408,5.6174519 -6e-7,8.035443 z"
         transform="matrix(-1.1,0,0,-1.1,-1.1,0)"
         inkscape:connector-curvature="0" />
    </marker>
  </defs>
  <sodipodi:namedview
     id="base"
     pagecolor="#000000"
     bordercolor="#666666"
     borderopacity="1.0"
     inkscape:pageopacity="0"
     inkscape:pageshadow="2"
     inkscape:zoom="1.7536801"
     inkscape:cx="108.01857"
     inkscape:cy="211.43812"
     inkscape:document-units="px"
     inkscape:current-layer="layer1"
     showgrid="false"
     inkscape:window-width="1890"
     inkscape:window-height="1077"
     inkscape:window-x="1283"
     inkscape:window-y="1083"
     inkscape:window-maximized="0"
     fit-margin-top="0"
     fit-margin-left="0"
     fit-margin-right="0"
     fit-margin-bottom="0" />
  <metadata
     id="metadata7">
    <rdf:RDF>
      <cc:Work
         rdf:about="">
        <dc:format>image/svg+xml</dc:format>
        <dc:type
           rdf:resource="http://purl.org/dc/dcmitype/StillImage" />
        <dc:title></dc:title>
      </cc:Work>
    </rdf:RDF>
  </metadata>
  <g
     inkscape:label="Layer 1"
     inkscape:groupmode="layer"
     id="layer1"
     transform="translate(-79.533801,-237.89869)">
    <g
       id="g4164"
       transform="matrix(0.75288136,-0.22453676,0.22453676,0.75288136,-76.595507,130.61525)"
       style="fill:#8000ff;fill-opacity:1;stroke:#ffffff;stroke-opacity:1">
      <rect
         y="205.90031"
         x="275.54153"
         height="316.92551"
         width="306.44196"
         id="rect4136"
         style="fill:#8000ff;fill-opacity:1;fill-rule:nonzero;stroke:#ffffff;stroke-opacity:1"
         transform="matrix(0.95712299,0.28968185,-0.28968185,0.95712299,0,0)" />
      <path
         inkscape:connector-curvature="0"
         id="path4158"
         d="m 213.04083,528.07312 c 0.54327,1.34461 0.9877,2.73352 1.62983,4.03383 0.73611,1.49063 3.15692,3.88025 4.34621,4.95061 0.42367,0.3813 4.2921,3.6086 4.61785,3.85047 3.9231,2.9129 2.02291,1.05182 5.70441,4.03383 1.87216,1.51645 3.62184,3.17816 5.43276,4.76725 7.36821,6.4656 -1.87216,-1.57964 5.43277,4.5839 2.78837,2.35268 5.51672,4.75159 8.42078,6.96752 1.07012,0.81654 2.20466,1.54765 3.25966,2.38362 1.02916,0.8155 1.95642,1.7546 2.98803,2.56699 1.14328,0.90033 2.35419,1.71132 3.53129,2.56698 1.1771,0.85566 2.32513,1.75281 3.5313,2.56698 1.14953,0.77593 2.36741,1.44607 3.5313,2.20027 1.10013,0.71289 2.12133,1.55011 3.25966,2.20027 1.22202,0.69796 2.54421,1.2042 3.80294,1.83356 2.24256,1.12128 5.02923,2.7014 7.33423,3.66712 7.36064,3.08385 15.26165,4.31185 23.08925,5.50067 1.90404,0.28918 3.79503,0.6653 5.70441,0.91678 4.21181,0.55473 6.8789,0.62935 11.13717,0.91678 5.1528,0.34781 10.31522,0.55032 15.48338,0.36671 1.34206,-0.0477 8.77481,-0.61736 10.32226,-0.73342 7.24882,-0.54366 14.38719,-1.41214 21.45942,-3.11705 3.69706,-0.89126 7.5041,-1.6185 11.13717,-2.75034 1.19576,-0.37252 2.34463,-0.88299 3.5313,-1.28349 1.16816,-0.39425 2.37256,-0.67898 3.5313,-1.10014 1.19794,-0.4354 2.3499,-0.98838 3.5313,-1.46684 1.08235,-0.43835 2.19476,-0.80429 3.25966,-1.28349 1.11059,-0.49977 2.16643,-1.11353 3.25966,-1.65021 0.89897,-0.44131 1.83259,-0.81252 2.71638,-1.28349 3.17173,-1.69019 1.5433,-1.01369 4.07458,-2.56698 3.0823,-1.89141 -0.0204,0.30993 2.1731,-1.46685 0.25467,-0.20628 0.58462,-0.31689 0.81492,-0.55006 0.10689,-0.10823 0.22842,-0.22086 0.27163,-0.36671 0.0521,-0.17581 -0.0439,-0.37206 0,-0.55007 0.1544,-0.6253 0.63155,-1.21468 0.81492,-1.83356 0.0347,-0.1172 -0.0425,-0.25208 0,-0.36671 0.19039,-0.51404 0.77238,-0.85936 1.08655,-1.28349"
         style="fill:#8000ff;fill-rule:evenodd;stroke:#ffffff;stroke-width:1px;stroke-linecap:butt;stroke-linejoin:miter;stroke-opacity:1;fill-opacity:1" />
      <path
         inkscape:connector-curvature="0"
         id="path4160"
         d="m 244.00759,387.43918 c 0.27164,2.01691 0.50134,4.03992 0.81492,6.05074 0.22986,1.47397 0.60453,2.92366 0.81491,4.40054 0.80301,5.63709 0.84273,11.37388 1.08656,17.0521 0.25948,6.04274 0.42354,12.10247 0.27163,18.15223 -0.043,1.71317 -0.22375,3.42091 -0.27163,5.13396 -0.0427,1.52737 0.0503,3.05676 0,4.5839 -0.0349,1.06074 -0.38023,5.09676 -0.54328,6.41745 -0.30142,2.4415 -0.27164,0.89198 -0.27164,2.20027"
         style="fill:#8000ff;fill-rule:evenodd;stroke:#ffffff;stroke-width:1px;stroke-linecap:butt;stroke-linejoin:miter;stroke-opacity:1;fill-opacity:1" />
      <path
         inkscape:connector-curvature="0"
         id="path4162"
         d="m 353.74947,393.48992 c 0.72753,10.31278 -0.052,-2.02329 0.27164,7.15088 0.0518,1.46873 0.22978,2.9315 0.27163,4.40054 0.0487,1.71063 -0.0858,3.4248 0,5.13396 0.0955,1.90092 0.45661,3.7827 0.54328,5.68404 0.0946,2.07587 -0.0459,4.15657 0,6.23409 0.0446,2.01846 0.22701,4.0323 0.27164,6.05075 0.0883,3.99383 0.0186,7.93481 -0.27164,11.91813 -0.0415,0.56944 -0.97603,9.87371 -1.08655,10.63464 -0.20579,1.41686 -0.56625,2.80721 -0.81492,4.21718 -0.20413,1.15743 -0.29309,2.33541 -0.54327,3.48376 -1.76961,8.12251 -0.19534,-1.0136 -1.08656,4.40054"
         style="fill:#8000ff;fill-rule:evenodd;stroke:#ffffff;stroke-width:1px;stroke-linecap:butt;stroke-linejoin:miter;stroke-opacity:1;fill-opacity:1" />
    </g>
    <path
       style="fill:none;fill-rule:evenodd;stroke:#ffffff;stroke-width:1.28384101;stroke-linecap:butt;stroke-linejoin:miter;stroke-miterlimit:4;stroke-dasharray:7.70304608,7.70304608;stroke-dashoffset:0;stroke-opacity:1;marker-end:url(#marker4491)"
       d="m 138.00618,237.90004 1.30092,367.98261"
       id="path4193"
       inkscape:connector-curvature="0" />
    <path
       style="fill:none;fill-rule:evenodd;stroke:#ffffff;stroke-width:1.24880624;stroke-linecap:butt;stroke-linejoin:miter;stroke-miterlimit:4;stroke-dasharray:7.49283743,7.49283743;stroke-dashoffset:0;stroke-opacity:1;marker-end:url(#Arrow2Lend)"
       d="m 79.534276,292.66587 350.492934,0.4477"
       id="path4195"
       inkscape:connector-curvature="0" />
    <text
       xml:space="preserve"
       style="font-style:normal;font-weight:normal;font-size:15px;line-height:125%;font-family:sans-serif;text-align:start;letter-spacing:0px;word-spacing:0px;writing-mode:lr-tb;text-anchor:start;fill:#000000;fill-opacity:1;stroke:none;stroke-width:1px;stroke-linecap:butt;stroke-linejoin:miter;stroke-opacity:1"
       x="186.03828"
       y="268.75531"
       id="text4523"
       sodipodi:linespacing="125%"><tspan
         sodipodi:role="line"
         id="tspan4525"
         x="186.03828"
         y="268.75531" /></text>
    <text
       xml:space="preserve"
       style="font-style:normal;font-weight:normal;font-size:11.78476143px;line-height:125%;font-family:sans-serif;text-align:start;letter-spacing:0px;word-spacing:0px;writing-mode:lr-tb;text-anchor:start;fill:#ffffff;fill-opacity:1;stroke:none;stroke-width:1px;stroke-linecap:butt;stroke-linejoin:miter;stroke-opacity:1;"
       x="139.94713"
       y="274.96198"
       id="text4527"
       sodipodi:linespacing="125%"><tspan
         sodipodi:role="line"
         id="tspan4529"
         x="139.94713"
         y="274.96198">(0,0)</tspan></text>
  </g>
</svg>
