<?xml version="1.0" encoding="UTF-8" standalone="no"?>
<!-- Created with Inkscape (http://www.inkscape.org/) -->

<svg
   xmlns:dc="http://purl.org/dc/elements/1.1/"
   xmlns:cc="http://creativecommons.org/ns#"
   xmlns:rdf="http://www.w3.org/1999/02/22-rdf-syntax-ns#"
   xmlns:svg="http://www.w3.org/2000/svg"
   xmlns="http://www.w3.org/2000/svg"
   xmlns:sodipodi="http://sodipodi.sourceforge.net/DTD/sodipodi-0.dtd"
   xmlns:inkscape="http://www.inkscape.org/namespaces/inkscape"
   width="110.68192mm"
   height="108.77761mm"
   viewBox="0 0 392.18001 385.43248"
   id="svg2"
   version="1.1"
   inkscape:version="0.91 r13725"
   sodipodi:docname="rotation3.svg">
  <defs
     id="defs4">
    <marker
       inkscape:isstock="true"
       style="overflow:visible"
       id="marker4491"
       refX="0"
       refY="0"
       orient="auto"
       inkscape:stockid="Arrow2Lend">
      <path
         transform="matrix(-1.1,0,0,-1.1,-1.1,0)"
         d="M 8.7185878,4.0337352 -2.2072895,0.01601326 8.7185884,-4.0017078 c -1.7454984,2.3720609 -1.7354408,5.6174519 -6e-7,8.035443 z"
         style="fill:#ffffff;fill-opacity:1;fill-rule:evenodd;stroke:#ffffff;stroke-width:0.625;stroke-linejoin:round;stroke-opacity:1"
         id="path4493"
         inkscape:connector-curvature="0" />
    </marker>
    <marker
       inkscape:stockid="Arrow2Lend"
       orient="auto"
       refY="0"
       refX="0"
       id="Arrow2Lend"
       style="overflow:visible"
       inkscape:isstock="true"
       inkscape:collect="always">
      <path
         id="path4236"
         style="fill:#ffffff;fill-opacity:1;fill-rule:evenodd;stroke:#ffffff;stroke-width:0.625;stroke-linejoin:round;stroke-opacity:1"
         d="M 8.7185878,4.0337352 -2.2072895,0.01601326 8.7185884,-4.0017078 c -1.7454984,2.3720609 -1.7354408,5.6174519 -6e-7,8.035443 z"
         transform="matrix(-1.1,0,0,-1.1,-1.1,0)"
         inkscape:connector-curvature="0" />
    </marker>
  </defs>
  <sodipodi:namedview
     id="base"
     pagecolor="#000000"
     bordercolor="#666666"
     borderopacity="1.0"
     inkscape:pageopacity="0"
     inkscape:pageshadow="2"
     inkscape:zoom="8.8837174"
     inkscape:cx="73.55741"
     inkscape:cy="366.81771"
     inkscape:document-units="px"
     inkscape:current-layer="layer1"
     showgrid="false"
     inkscape:window-width="1880"
     inkscape:window-height="1067"
     inkscape:window-x="1287"
     inkscape:window-y="1087"
     inkscape:window-maximized="0"
     fit-margin-top="0"
     fit-margin-left="0"
     fit-margin-right="0"
     fit-margin-bottom="0" />
  <metadata
     id="metadata7">
    <rdf:RDF>
      <cc:Work
         rdf:about="">
        <dc:format>image/svg+xml</dc:format>
        <dc:type
           rdf:resource="http://purl.org/dc/dcmitype/StillImage" />
        <dc:title />
      </cc:Work>
    </rdf:RDF>
  </metadata>
  <g
     inkscape:label="Layer 1"
     inkscape:groupmode="layer"
     id="layer1"
     transform="translate(-79.427325,-237.86091)">
    <rect
       transform="matrix(0.95712299,0.28968185,-0.28968185,0.95712299,0,0)"
       style="fill:#8100ff;fill-opacity:1;fill-rule:nonzero;stroke:#ffffff;stroke-width:0.78565073;stroke-opacity:1"
       id="rect4136"
       width="240.75635"
       height="248.99275"
       x="288.21396"
       y="222.5193" />
    <path
       style="fill:none;fill-rule:evenodd;stroke:#ffffff;stroke-width:0.78565073px;stroke-linecap:butt;stroke-linejoin:miter;stroke-opacity:1"
       d="m 218.43527,493.80988 c 0.42683,1.0564 0.77599,2.1476 1.28048,3.16919 0.57833,1.17111 2.48024,3.04852 3.41461,3.88945 0.33285,0.29957 3.37209,2.8351 3.62801,3.02512 3.08219,2.28852 1.5893,0.82636 4.48168,3.16918 1.47086,1.1914 2.8455,2.49693 4.26825,3.7454 5.78884,5.0797 -1.47087,-1.24105 4.26826,3.60134 2.19068,1.84839 4.33421,3.73309 6.61579,5.47404 0.84074,0.64151 1.73209,1.21591 2.56095,1.87269 0.80857,0.6407 1.53707,1.3785 2.34755,2.01676 0.89822,0.70734 1.84957,1.3445 2.77436,2.01675 0.92479,0.67225 1.82674,1.3771 2.77437,2.01675 0.90313,0.60961 1.85996,1.1361 2.77437,1.72864 0.86432,0.56008 1.66662,1.21785 2.56095,1.72865 0.96009,0.54835 1.99887,0.94608 2.98779,1.44053 1.76187,0.88094 3.95122,2.12236 5.76214,2.88108 5.78289,2.42283 11.99033,3.38761 18.14009,4.3216 1.49591,0.2272 2.98157,0.5227 4.48167,0.72027 3.30901,0.43583 5.40441,0.49445 8.74993,0.72027 4.0483,0.27326 8.10416,0.43236 12.16453,0.28811 1.05439,-0.0375 6.89393,-0.48503 8.10969,-0.57621 5.69504,-0.42713 11.3033,-1.10945 16.85961,-2.44892 2.90459,-0.70022 5.8956,-1.27157 8.74992,-2.1608 0.93945,-0.29267 1.84206,-0.69372 2.77437,-1.00838 0.91777,-0.30974 1.86401,-0.53344 2.77437,-0.86432 0.94116,-0.34208 1.8462,-0.77652 2.77437,-1.15243 0.85035,-0.34439 1.72431,-0.63189 2.56095,-1.00837 0.87254,-0.39265 1.70206,-0.87485 2.56096,-1.29649 0.70627,-0.34672 1.43977,-0.63836 2.13412,-1.00838 2.49188,-1.32789 1.2125,-0.7964 3.2012,-2.01675 2.42161,-1.48598 -0.016,0.2435 1.7073,-1.15243 0.20008,-0.16206 0.4593,-0.24896 0.64024,-0.43215 0.084,-0.085 0.17946,-0.17352 0.21341,-0.28811 0.0409,-0.13812 -0.0345,-0.29231 0,-0.43216 0.1213,-0.49127 0.49617,-0.95432 0.64024,-1.44054 0.0273,-0.0921 -0.0334,-0.19805 0,-0.28811 0.14958,-0.40385 0.60682,-0.67515 0.85365,-1.00837"
       id="path4158"
       inkscape:connector-curvature="0" />
    <path
       style="fill:none;fill-rule:evenodd;stroke:#ffffff;stroke-width:0.78565073px;stroke-linecap:butt;stroke-linejoin:miter;stroke-opacity:1"
       d="m 242.76433,383.32072 c 0.21342,1.58459 0.39388,3.17397 0.64025,4.75377 0.18059,1.15803 0.47495,2.29698 0.64023,3.45729 0.63089,4.42878 0.66209,8.9359 0.85366,13.397 0.20386,4.74748 0.33275,9.50831 0.2134,14.26131 -0.0338,1.34595 -0.17579,2.68764 -0.2134,4.0335 -0.0335,1.19998 0.0395,2.40154 0,3.60134 -0.0274,0.83337 -0.29873,4.00428 -0.42683,5.04188 -0.23681,1.91816 -0.21342,0.70078 -0.21342,1.72864"
       id="path4160"
       inkscape:connector-curvature="0" />
    <path
       style="fill:none;fill-rule:evenodd;stroke:#ffffff;stroke-width:0.78565073px;stroke-linecap:butt;stroke-linejoin:miter;stroke-opacity:1"
       d="m 328.98312,388.07449 c 0.57159,8.10225 -0.0408,-1.5896 0.21342,5.6181 0.0407,1.15391 0.18052,2.30313 0.2134,3.45728 0.0383,1.34396 -0.0674,2.6907 0,4.0335 0.075,1.49346 0.35874,2.97189 0.42683,4.46567 0.0743,1.63091 -0.0361,3.26562 0,4.89782 0.035,1.58581 0.17835,3.16798 0.21342,4.75378 0.0694,3.13775 0.0146,6.23399 -0.21342,9.36349 -0.0326,0.44738 -0.76682,7.75728 -0.85365,8.35511 -0.16168,1.11316 -0.44487,2.20549 -0.64024,3.31323 -0.16037,0.90934 -0.23027,1.83482 -0.42682,2.73702 -1.39029,6.38145 -0.15347,-0.79634 -0.85366,3.45729"
       id="path4162"
       inkscape:connector-curvature="0" />
    <rect
       y="294.23199"
       x="139.17274"
       height="310.54727"
       width="302.48303"
       id="rect5137"
       style="fill:none;fill-opacity:1;fill-rule:nonzero;stroke:#ff8180;stroke-width:2.90000017;stroke-miterlimit:4;stroke-dasharray:2.90000017,5.80000035;stroke-dashoffset:0;stroke-opacity:1" />
    <path
       style="fill:none;fill-rule:evenodd;stroke:#ffffff;stroke-width:1.16694493;stroke-linecap:butt;stroke-linejoin:miter;stroke-miterlimit:4;stroke-dasharray:7.00166959,7.00166959;stroke-dashoffset:0;stroke-opacity:1;marker-end:url(#marker4491)"
       d="m 138.01919,237.86221 1.28775,384.13071"
       id="path4193"
       inkscape:connector-curvature="0" />
    <path
       style="fill:none;fill-rule:evenodd;stroke:#ffffff;stroke-width:1.16250021;stroke-linecap:butt;stroke-linejoin:miter;stroke-miterlimit:4;stroke-dasharray:6.97500128,6.97500128;stroke-dashoffset:0;stroke-opacity:1;marker-end:url(#Arrow2Lend)"
       d="m 79.427756,292.67778 390.883924,0.43514"
       id="path4195"
       inkscape:connector-curvature="0" />
    <text
       xml:space="preserve"
       style="font-style:normal;font-weight:normal;font-size:15px;line-height:125%;font-family:sans-serif;text-align:start;letter-spacing:0px;word-spacing:0px;writing-mode:lr-tb;text-anchor:start;fill:#000000;fill-opacity:1;stroke:none;stroke-width:1px;stroke-linecap:butt;stroke-linejoin:miter;stroke-opacity:1"
       x="186.03828"
       y="268.75531"
       id="text4523"
       sodipodi:linespacing="125%"><tspan
         sodipodi:role="line"
         id="tspan4525"
         x="186.03828"
         y="268.75531" /></text>
    <text
       xml:space="preserve"
       style="font-style:normal;font-weight:normal;font-size:11.78476143px;line-height:125%;font-family:sans-serif;text-align:start;letter-spacing:0px;word-spacing:0px;writing-mode:lr-tb;text-anchor:start;fill:#ffffff;fill-opacity:1;stroke:none;stroke-width:1.00000006;stroke-linecap:butt;stroke-linejoin:miter;stroke-opacity:1;stroke-miterlimit:4;stroke-dasharray:none;"
       x="139.94713"
       y="274.96198"
       id="text4527"
       sodipodi:linespacing="125%"><tspan
         sodipodi:role="line"
         id="tspan4529"
         x="139.94713"
         y="274.96198">(0,0)</tspan></text>
  </g>
</svg>
